<?xml version="1.0" encoding="utf-8"?>
<!-- Generator: Adobe Illustrator 16.0.4, SVG Export Plug-In . SVG Version: 6.00 Build 0)  -->
<!DOCTYPE svg PUBLIC "-//W3C//DTD SVG 1.1//EN" "http://www.w3.org/Graphics/SVG/1.1/DTD/svg11.dtd">
<svg version="1.1" id="Layer_1" xmlns="http://www.w3.org/2000/svg" xmlns:xlink="http://www.w3.org/1999/xlink" x="0px" y="0px"
	 width="376.5px" height="228.6px" viewBox="0 0 376.5 228.6" enable-background="new 0 0 376.5 228.6" xml:space="preserve">
<g>
	<path fill="#C7D678" d="M216.7,55.1L241,11.7c-6.9-3.4-14.3-6.1-21.9-8.1l-9.2,48.9C212.2,53.2,214.5,54.1,216.7,55.1z"/>
	<path fill="#C7D678" d="M125.3,114.8c0-1.9,0.1-3.7,0.3-5.5L76.9,98.3c-0.8,5.4-1.3,10.9-1.3,16.5c0,2.2,0.2,4.3,0.3,6.4l49.4-5.2
		C125.3,115.6,125.3,115.2,125.3,114.8z"/>
	<path fill="#C7D678" d="M126,124.5l-50,0.6c0.7,7.7,2.1,15.2,4.3,22.4l47-16.5C126.8,128.8,126.4,126.6,126,124.5z"/>
	<path fill="#C7D678" d="M137.1,152.2l-44.3,22.9c4,6.4,8.6,12.4,13.7,17.9l34.5-35.8C139.7,155.6,138.3,153.9,137.1,152.2z"/>
	<path fill="#C7D678" d="M128.6,94.3L83.8,72.4c-2.8,7.1-4.9,14.5-6.3,22.2l49.3,6.3C127.3,98.7,127.9,96.5,128.6,94.3z"/>
	<path fill="#C7D678" d="M147,163.3l-37.9,32.6c5.3,5.3,11.1,10.1,17.4,14.3l25.4-42.9C150.2,166.1,148.6,164.7,147,163.3z"/>
	<path fill="#C7D678" d="M171.1,52.5l-9.2-48.9c-7.7,2-15,4.7-21.9,8.1l24.4,43.3C166.5,54.1,168.8,53.2,171.1,52.5z"/>
	<path fill="#C7D678" d="M157,59l-20.3-45.6c-6.9,3.7-13.4,8-19.4,13L151,63C152.9,61.5,154.9,60.2,157,59z"/>
	<path fill="#C7D678" d="M144.7,68.4l-30.2-39.6c-5.8,5.1-11.1,10.9-15.8,17.1L140,73.6C141.4,71.8,143,70,144.7,68.4z"/>
	<path fill="#C7D678" d="M135.1,80.5L96.5,48.8c-4.4,6.3-8.3,13-11.4,20.2l46.6,17.6C132.8,84.5,133.9,82.4,135.1,80.5z"/>
	<path fill="#C7D678" d="M229.1,167.3l25.4,42.9c6.3-4.2,12.1-9,17.4-14.3L234,163.3C232.4,164.7,230.8,166.1,229.1,167.3z"/>
	<path fill="#C7D678" d="M240,157.2l34.5,35.8c5.1-5.5,9.7-11.5,13.7-17.9l-44.3-22.9C242.6,153.9,241.3,155.6,240,157.2z"/>
	<path fill="#C7D678" d="M216.3,174.7l14.8,47.5c7.1-2.7,13.8-6,20.1-9.9L221.9,172C220.1,173,218.2,173.9,216.3,174.7z"/>
	<path fill="#C7D678" d="M159.1,172l-29.3,40.3c6.3,3.9,13,7.3,20.1,9.9l14.8-47.5C162.8,173.9,160.9,173,159.1,172z"/>
	<path fill="#C7D678" d="M251,139c-0.8,2-1.7,4-2.7,5.9l41.9,26.9c3.7-6.5,6.9-13.4,9.3-20.7L251,139z"/>
	<path fill="#C7D678" d="M172.8,177.5l-19.2,46c7,2.4,14.3,4.1,21.8,5.1l3.5-49.7C176.8,178.6,174.8,178.1,172.8,177.5z"/>
	<path fill="#C7D678" d="M190.5,180c-1,0-2.1-0.1-3.1-0.2l-8.1,49.3c3.7,0.4,7.4,0.6,11.2,0.6c3.8,0,7.5-0.2,11.2-0.6l-8.1-49.3
		C192.6,179.9,191.5,180,190.5,180z"/>
	<path fill="#C7D678" d="M202.1,178.9l3.5,49.7c7.5-1,14.8-2.7,21.8-5.1l-19.2-46C206.2,178.1,204.2,178.6,202.1,178.9z"/>
	<path fill="#C7D678" d="M130,139l-48.4,12.1c2.4,7.3,5.5,14.2,9.3,20.7l41.9-26.9C131.7,143,130.8,141,130,139z"/>
	<path fill="#C7D678" d="M201.8,50.6l13.8-47.9c-7.5-1.7-15.3-2.6-23.3-2.7l2.3,49.8C197.1,49.9,199.5,50.2,201.8,50.6z"/>
	<path fill="#C7D678" d="M249.2,86.6L295.8,69c-3.1-7.1-7-13.9-11.4-20.2l-38.6,31.7C247.1,82.4,248.2,84.5,249.2,86.6z"/>
	<path fill="#C7D678" d="M229.9,63l33.8-36.7c-6-5-12.5-9.3-19.4-13L224,59C226.1,60.2,228,61.5,229.9,63z"/>
	<path fill="#C7D678" d="M241,73.6l41.2-27.8c-4.7-6.2-10-11.9-15.8-17.1l-30.2,39.6C238,70.1,239.5,71.8,241,73.6z"/>
	<path fill="#C7D678" d="M253.6,130.9l47,16.5c2.1-7.2,3.6-14.7,4.2-22.4l-49.9-0.6C254.6,126.6,254.2,128.8,253.6,130.9z"/>
	<path fill="#C7D678" d="M254.2,100.9l49.3-6.3c-1.4-7.7-3.5-15.1-6.3-22.2l-44.8,21.9C253.1,96.5,253.7,98.7,254.2,100.9z"/>
	<path fill="#C7D678" d="M255.7,114.8c0,0.4-0.1,0.8-0.1,1.2l49.4,5.2c0.1-2.1,0.3-4.2,0.3-6.4c0-5.6-0.5-11.1-1.3-16.5l-48.6,10.9
		C255.6,111.1,255.7,113,255.7,114.8z"/>
	<path fill="#C7D678" d="M186.3,49.8L188.7,0c-8,0.1-15.8,1.1-23.3,2.7l13.7,47.9C181.5,50.2,183.9,49.9,186.3,49.8z"/>
</g>
<g>
	<path fill="#3D505A" d="M18.1,112.5h12.6v1c-4.1,0-4.1,0.7-4.1,6.6v3.1c-0.3,0-0.5-0.1-0.9-0.1c-1.6,0-3.7,0.7-4.4,1
		c-1.6,0.6-3.7,1.4-6.7,1.4c-8.4,0-14.6-6.1-14.6-14.6c0-6.4,4.1-15.7,14.7-15.7c2.2,0,6.1,0.3,9.7,4.3c0.7-1.5,0.8-2.9,0.9-3.3h1.1
		v9.8h-1.1c-0.9-6.7-5.4-9.7-10.1-9.7c-2.7,0-5.5,1-7.6,3.4c-2,2.2-2.7,6-2.7,10.5c0,4.1,0.6,8.6,3.2,11.3c1.8,1.9,4.5,3,7.1,3
		c2.3,0,4.7-0.8,6.1-2.5c1.1-1.4,1.1-3,1.1-4c0-4.2-0.7-4.5-3.7-4.5h-0.7V112.5z"/>
	<path fill="#3D505A" d="M54.8,110.3c1.9,1,4.6,4.6,5.2,5.3c0.2,0.3,1.3,1.7,1.5,2c4.3,5.8,6.4,6.3,9,6.3v1h-7.8
		c-2.2-1.6-5.2-5.9-6.4-7.7c-1.8-2.6-3.7-4.9-4.6-5.7c-0.7-0.7-1.6-0.7-2.1-0.7h-1.1v6.5c0,5.6,0,6.6,3.7,6.6h1.4v1h-14v-1h0.9
		c3.7,0,3.7-1,3.7-6.6V103c0-5.8-0.2-6.3-3.5-6.3h-0.9v-1h0.6c0.8,0,4.6-0.3,5.9-0.3c1.1,0,3.1-0.1,4.4-0.1c6,0,8.5,1.1,10.2,2.5
		c1.8,1.5,2.5,3.1,2.5,5C63.1,107.3,59.4,109.7,54.8,110.3L54.8,110.3z M50.7,109.9c5.7,0,7.6-2.3,7.6-6.7c0-5.9-3.6-6.8-7.9-6.8
		c-0.8,0-1.5,0-2.1,0.1v13.3H50.7z"/>
	<path fill="#3D505A" d="M93.5,124c2.5,0,6.8,0,8.7-8.1h1l-0.6,9.1H78.5v-1h0.6c3.8,0,3.8-1,3.8-6.6V103c0-5.8,0-6.3-3.8-6.3v-1H100
		l0.7,7.3h-1c-1.4-6.2-3.5-6.3-8.5-6.3h-4.1V109h3.1c4.1,0,4.4-1,4.4-4.4h1v10h-1c0-4.4-1-4.6-4.3-4.6h-3.2v6.9
		c0,6.7,0.3,7.1,4.3,7.1H93.5z"/>
	<path fill="#3D505A" d="M127.7,124c2.5,0,6.8,0,8.7-8.1h1l-0.6,9.1h-24.2v-1h0.6c3.8,0,3.8-1,3.8-6.6V103c0-5.8,0-6.3-3.8-6.3v-1
		h20.9l0.7,7.3h-1c-1.4-6.2-3.5-6.3-8.5-6.3h-4.1V109h3.1c4.1,0,4.4-1,4.4-4.4h1v10h-1c0-4.4-1-4.6-4.3-4.6h-3.2v6.9
		c0,6.7,0.3,7.1,4.3,7.1H127.7z"/>
	<path fill="#3D505A" d="M172.4,125.6l-20.5-27.3h-0.1v20.2c0,3,0.1,3.6,1,4.4c0.3,0.3,1.3,1.1,4.1,1.1v1H146v-1
		c0.9-0.1,2.9-0.2,4.1-1.4c0.7-0.7,0.7-1.4,0.7-4.1V103c0-6.3-0.6-6.3-4.3-6.3v-1h8.6l17.2,22.8h0.1v-17.5c0-2.1,0-4.4-5-4.4v-1
		h10.6v1c-4.5,0.4-4.5,2.4-4.5,4.7v24.2H172.4z"/>
	<path fill="#3D505A" d="M215.6,125.6h-1l-8.7-23.9h-0.1l-7.8,23.9h-1.1l-7.1-22.8c0-0.1-0.1-0.5-0.3-0.8c-1.5-4.9-2-5.2-4.5-5.3v-1
		h10.9v1c-1.9,0.2-3.1,0.3-3.1,1.8c0,0.7,0.3,1.6,0.4,1.9c0,0.2,0.4,1.5,0.5,1.7l5.2,17h0.1l7.5-23.4h1.3l8.6,23.4h0.1l4.4-15.6
		c0.4-1.3,0.9-3,0.9-4c0-1.9-0.9-2.9-3-2.9v-1h8v1c-2.6,0.2-3.2,1.4-4.8,6.9L215.6,125.6z"/>
	<path fill="#3D505A" d="M249.9,95.2c7.9,0,16.1,4.6,16.1,15.1c0,8.9-6.2,15.2-15.9,15.2c-8.9,0-15.9-5.6-15.9-15.3
		C234.1,100.2,241.9,95.2,249.9,95.2z M250.2,124.4c9.6,0,10.8-9.1,10.8-14.1c0-4.2-0.9-14.1-11-14.1c-9.1,0-10.9,7.9-10.9,14
		C239.1,119.4,242.5,124.4,250.2,124.4z"/>
	<path fill="#3D505A" d="M291.2,110.3c1.9,1,4.6,4.6,5.2,5.3c0.2,0.3,1.3,1.7,1.5,2c4.3,5.8,6.4,6.3,9,6.3v1H299
		c-2.2-1.6-5.2-5.9-6.4-7.7c-1.8-2.6-3.7-4.9-4.6-5.7c-0.7-0.7-1.6-0.7-2.1-0.7h-1.1v6.5c0,5.6,0,6.6,3.7,6.6h1.4v1h-14v-1h0.9
		c3.7,0,3.7-1,3.7-6.6V103c0-5.8-0.2-6.3-3.5-6.3h-0.9v-1h0.6c0.8,0,4.6-0.3,5.9-0.3c1.1,0,3.1-0.1,4.4-0.1c6,0,8.5,1.1,10.2,2.5
		c1.8,1.5,2.5,3.1,2.5,5C299.5,107.3,295.8,109.7,291.2,110.3L291.2,110.3z M287.2,109.9c5.7,0,7.6-2.3,7.6-6.7
		c0-5.9-3.6-6.8-7.9-6.8c-0.8,0-1.5,0-2.1,0.1v13.3H287.2z"/>
	<path fill="#3D505A" d="M323.6,110.6l9-8c1.3-1.1,3.1-2.8,3.1-4c0-1.8-2.2-1.9-3.1-1.9v-1h11v1c-1.1,0-3.4,0.1-7.2,3.7l-7.6,7.1
		l11,11.1c0.2,0.2,0.9,1,1.5,1.6c0.4,0.3,0.7,0.6,0.8,0.7c1.7,1.7,3,3,6,3.1v1h-15.2v-1c2.3,0,4.2,0,4.2-1.5c0-0.9-2.1-3-3.1-4
		l-8.2-8.3l-2.1,1.9v5.3c0,6,0,6.6,4.3,6.6v1h-13.1v-1h0.9c3.7,0,3.7-1,3.7-6.6V103c0-6.1-0.1-6.3-4.2-6.3v-1h12.9v1
		c-4.4,0-4.5,0-4.5,6.3V110.6z"/>
	<path fill="#3D505A" d="M360.2,100.7c0,3.5,3.6,5.1,7,6.6c5.7,2.5,9.3,4.2,9.3,9.7c0,4.9-3.6,8.4-9.2,8.4c-4.8,0-7.3-2.9-8-3.7
		c-0.3,0.4-0.7,1.1-1.1,2.8h-1.1v-9.4h1.1c0.4,2,1.9,9.2,8.7,9.2c4.3,0,6.5-3,6.5-5.7c0-3.4-3-5.1-6-6.4c-0.3-0.1-1.7-0.7-2-0.8
		c-3.3-1.4-8.1-3.5-8.1-9c0-3.8,2.9-7.2,7.7-7.2c3.8,0,5.7,1.9,6.7,3.1c1-1.2,1.1-2,1.1-2.6h0.9v7.6H373c-1.2-4.8-4.3-7.1-7.8-7.1
		C361.5,96.3,360.2,98.8,360.2,100.7z"/>
</g>
<g>
	<path fill="#3D505A" stroke="#3D505A" stroke-miterlimit="10" d="M64.3,146.6h4c2.5,0,4.7,0.9,4.7,3.7c0,3-2.5,3.7-4.4,3.7h-2.7
		v6.1h-1.6V146.6z M65.9,152.5h2.7c1.6,0,2.7-0.7,2.7-2.2s-1.1-2.2-2.7-2.2h-2.7V152.5z"/>
	<path fill="#3D505A" stroke="#3D505A" stroke-miterlimit="10" d="M86.1,146.6h1.6v5.7h7.2v-5.7h1.6v13.5h-1.6v-6.3h-7.2v6.3h-1.6
		V146.6z"/>
	<path fill="#3D505A" stroke="#3D505A" stroke-miterlimit="10" d="M110.4,146.6h1.6v13.5h-1.6V146.6z"/>
	<path fill="#3D505A" stroke="#3D505A" stroke-miterlimit="10" d="M125.9,146.6h1.6v12h6.2v1.5h-7.8V146.6z"/>
	<path fill="#3D505A" stroke="#3D505A" stroke-miterlimit="10" d="M150.3,146.6h1.5l5.7,13.5h-1.9l-1.4-3.3h-6.8l-1.4,3.3h-1.8
		L150.3,146.6z M151,148.6L151,148.6l-2.8,6.6h5.5L151,148.6z"/>
	<path fill="#3D505A" stroke="#3D505A" stroke-miterlimit="10" d="M169.6,146.6h5.2c2.7,0,6.6,1.8,6.6,6.8c0,5-4,6.8-6.6,6.8h-5.2
		V146.6z M171.2,158.6h3.1c3.1,0,5.4-1.6,5.4-5.3c0-3.7-2.3-5.3-5.4-5.3h-3.1V158.6z"/>
	<path fill="#3D505A" stroke="#3D505A" stroke-miterlimit="10" d="M194.5,146.6h8.5v1.5h-6.9v4.2h6.4v1.5h-6.4v4.8h7.2v1.5h-8.8
		V146.6z"/>
	<path fill="#3D505A" stroke="#3D505A" stroke-miterlimit="10" d="M216.3,146.6h1.6v12h6.2v1.5h-7.8V146.6z"/>
	<path fill="#3D505A" stroke="#3D505A" stroke-miterlimit="10" d="M236.3,146.6h4c2.5,0,4.7,0.9,4.7,3.7c0,3-2.5,3.7-4.4,3.7H238
		v6.1h-1.6V146.6z M238,152.5h2.7c1.6,0,2.7-0.7,2.7-2.2s-1.1-2.2-2.7-2.2H238V152.5z"/>
	<path fill="#3D505A" stroke="#3D505A" stroke-miterlimit="10" d="M258.2,146.6h1.6v5.7h7.2v-5.7h1.6v13.5H267v-6.3h-7.2v6.3h-1.6
		V146.6z"/>
	<path fill="#3D505A" stroke="#3D505A" stroke-miterlimit="10" d="M282.4,146.6h1.6v13.5h-1.6V146.6z"/>
	<path fill="#3D505A" stroke="#3D505A" stroke-miterlimit="10" d="M302.3,146.6h1.5l5.7,13.5h-1.9l-1.4-3.3h-6.8l-1.4,3.3h-1.8
		L302.3,146.6z M303,148.6L303,148.6l-2.8,6.6h5.5L303,148.6z"/>
</g>
</svg>
