<?xml version="1.0" encoding="utf-8"?>
<!-- Generator: Adobe Illustrator 16.0.4, SVG Export Plug-In . SVG Version: 6.00 Build 0)  -->
<!DOCTYPE svg PUBLIC "-//W3C//DTD SVG 1.1//EN" "http://www.w3.org/Graphics/SVG/1.1/DTD/svg11.dtd">
<svg version="1.1" id="Layer_1" xmlns="http://www.w3.org/2000/svg" xmlns:xlink="http://www.w3.org/1999/xlink" x="0px" y="0px"
	 width="383.8px" height="66.1px" viewBox="0 0 383.8 66.1" enable-background="new 0 0 383.8 66.1" xml:space="preserve">
<g id="Maps">
</g>
<g id="Pallet">
</g>
<g id="Layer_1_1_">
	<g>
		<g>
			<path fill="#3F505B" d="M18.4,17.6h12.9v1c-4.1,0-4.1,0.8-4.1,6.7v3.1c-0.3,0-0.5-0.1-0.9-0.1c-1.7,0-3.8,0.8-4.5,1
				c-1.6,0.6-3.7,1.4-6.9,1.4C6.3,30.8,0,24.6,0,16C0,9.4,4.1,0,15,0c2.3,0,6.2,0.3,9.9,4.4c0.7-1.5,0.9-2.9,0.9-3.3h1.1v10h-1.1
				c-0.9-6.8-5.5-9.9-10.3-9.9c-2.7,0-5.6,1-7.7,3.5c-2,2.1-2.8,6-2.8,10.5c0,4.1,0.6,8.7,3.2,11.5c1.8,1.9,4.6,3,7.2,3
				c2.4,0,4.8-0.8,6.2-2.5c1.2-1.4,1.2-3.1,1.2-4c0-4.3-0.7-4.6-3.7-4.6h-0.7V17.6z"/>
			<path fill="#3F505B" d="M55.8,15.4c1.9,1,4.7,4.7,5.3,5.4c0.2,0.3,1.3,1.8,1.5,2c4.4,5.9,6.6,6.4,9.1,6.5v1h-8
				c-2.2-1.6-5.3-6-6.5-7.8c-1.8-2.7-3.8-4.9-4.7-5.8C51.8,16,50.9,16,50.4,16h-1.2v6.7c0,5.7,0,6.7,3.7,6.7h1.4v1H40.2v-1h0.9
				c3.8,0,3.8-1,3.8-6.7V7.9c0-5.9-0.2-6.4-3.6-6.4h-0.9v-1H41c0.8,0,4.7-0.3,6-0.3c1.1,0,3.2-0.1,4.5-0.1c6.1,0,8.7,1.2,10.4,2.6
				c1.8,1.5,2.5,3.2,2.5,5.1C64.3,12.3,60.5,14.8,55.8,15.4L55.8,15.4z M51.7,14.9c5.8,0,7.8-2.4,7.8-6.8c0-6-3.7-6.9-8.1-6.9
				c-0.8,0-1.5,0-2.2,0.1v13.6H51.7z"/>
			<path fill="#3F505B" d="M95.3,29.3c2.5,0,6.9,0,8.9-8.3h1l-0.6,9.2H80v-1h0.6c3.9,0,3.9-1,3.9-6.7V7.9c0-5.9,0-6.4-3.9-6.4v-1
				h21.3l0.7,7.4h-1C100.2,1.6,98,1.5,93,1.5h-4.1V14H92c4.2,0,4.5-1,4.5-4.5h1v10.2h-1c0-4.5-1-4.7-4.4-4.7h-3.2v7.1
				c0,6.8,0.3,7.2,4.4,7.2H95.3z"/>
			<path fill="#3F505B" d="M130.2,29.3c2.5,0,6.9,0,8.9-8.3h1l-0.6,9.2h-24.6v-1h0.6c3.9,0,3.9-1,3.9-6.7V7.9c0-5.9,0-6.4-3.9-6.4
				v-1h21.3l0.7,7.4h-1c-1.4-6.3-3.6-6.4-8.6-6.4h-4.1V14h3.2c4.2,0,4.4-1,4.4-4.5h1v10.2h-1c0-4.5-1-4.7-4.4-4.7h-3.2v7.1
				c0,6.8,0.3,7.2,4.4,7.2H130.2z"/>
			<path fill="#3F505B" d="M175.8,31l-21-27.9h-0.1v20.6c0,3.1,0.1,3.7,1,4.5c0.3,0.3,1.3,1.1,4.2,1.1v1h-11.1v-1
				c0.9-0.1,2.9-0.2,4.1-1.4c0.7-0.7,0.7-1.4,0.7-4.2V7.9c0-6.4-0.6-6.4-4.4-6.4v-1h8.8l17.5,23.3h0.1V6c0-2.2,0-4.4-5.1-4.5v-1
				h10.8v1c-4.6,0.4-4.6,2.4-4.6,4.8V31H175.8z"/>
			<path fill="#3F505B" d="M219.7,31h-1l-8.9-24.4h-0.1l-8,24.4h-1.1l-7.2-23.2c0-0.1-0.1-0.5-0.3-0.8c-1.5-5-2.1-5.3-4.5-5.4v-1
				h11.1v1c-1.9,0.2-3.1,0.3-3.1,1.8c0,0.7,0.3,1.6,0.4,2c0,0.2,0.5,1.5,0.5,1.8l5.3,17.3h0.1l7.6-23.9h1.3l8.7,23.9h0.1l4.5-15.9
				c0.4-1.3,0.9-3.1,0.9-4.1c0-1.9-0.9-2.9-3.1-2.9v-1h8.1v1c-2.6,0.2-3.2,1.4-4.9,7.1L219.7,31z"/>
			<path fill="#3F505B" d="M254.7,0c8.1,0,16.4,4.7,16.4,15.4c0,9.1-6.3,15.5-16.2,15.5c-9,0-16.2-5.8-16.2-15.6
				C238.6,5.1,246.6,0,254.7,0z M255,29.8c9.8,0,11-9.3,11-14.3c0-4.3-0.9-14.3-11.2-14.3c-9.3,0-11.1,8-11.1,14.3
				C243.7,24.6,247.2,29.8,255,29.8z"/>
			<path fill="#3F505B" d="M296.8,15.4c1.9,1,4.7,4.7,5.3,5.4c0.2,0.3,1.3,1.8,1.5,2c4.4,5.9,6.6,6.4,9.1,6.5v1h-8
				c-2.2-1.6-5.3-6-6.5-7.8c-1.8-2.7-3.8-4.9-4.7-5.8c-0.7-0.7-1.6-0.7-2.1-0.7h-1.2v6.7c0,5.7,0,6.7,3.7,6.7h1.4v1H281v-1h0.9
				c3.8,0,3.8-1,3.8-6.7V7.9c0-5.9-0.2-6.4-3.6-6.4h-0.9v-1h0.6c0.8,0,4.7-0.3,6-0.3c1.1,0,3.2-0.1,4.5-0.1c6.1,0,8.7,1.2,10.4,2.6
				c1.8,1.5,2.5,3.2,2.5,5.1C305.3,12.3,301.6,14.8,296.8,15.4L296.8,15.4z M292.8,14.9c5.8,0,7.8-2.4,7.8-6.8c0-6-3.7-6.9-8.1-6.9
				c-0.8,0-1.5,0-2.2,0.1v13.6H292.8z"/>
			<path fill="#3F505B" d="M329.8,15.7l9.1-8.2c1.4-1.2,3.1-2.8,3.1-4c0-1.9-2.2-1.9-3.1-1.9v-1h11.2v1c-1.2,0-3.4,0.1-7.3,3.8
				l-7.8,7.2l11.2,11.3c0.2,0.2,0.9,1,1.6,1.6c0.4,0.3,0.7,0.6,0.8,0.8c1.7,1.7,3.1,3.1,6.1,3.1v1h-15.5v-1c2.3,0,4.3,0,4.3-1.5
				c0-0.9-2.1-3.1-3.1-4.1l-8.4-8.5l-2.2,1.9v5.4c0,6.1,0,6.7,4.4,6.7v1h-13.4v-1h1c3.8,0,3.7-1,3.7-6.7V7.9c0-6.2-0.1-6.4-4.3-6.4
				v-1h13.2v1c-4.5,0-4.6,0-4.6,6.4V15.7L329.8,15.7z"/>
			<path fill="#3F505B" d="M367.1,5.6c0,3.5,3.7,5.2,7.1,6.7c5.8,2.6,9.5,4.3,9.5,9.9c0,5-3.7,8.6-9.4,8.6c-4.9,0-7.5-2.9-8.2-3.7
				c-0.3,0.4-0.7,1.1-1.1,2.9h-1v-9.6h1.1c0.4,2.1,1.9,9.3,8.8,9.3c4.4,0,6.6-3.1,6.6-5.8c0-3.5-3.1-5.2-6.1-6.5
				c-0.3-0.1-1.8-0.8-2-0.9c-3.3-1.4-8.2-3.5-8.2-9.2c0-3.9,2.9-7.4,7.9-7.4c3.9,0,5.8,2,6.9,3.1c1-1.2,1.1-2.1,1.2-2.6h0.9v7.8
				h-0.9c-1.3-4.9-4.4-7.2-7.9-7.2C368.5,1.1,367.1,3.6,367.1,5.6z"/>
		</g>
		<g>
			<path fill="#3F505B" d="M65.5,52.3h4.1c2.5,0,4.8,0.9,4.8,3.8c0,3-2.6,3.8-4.5,3.8h-2.8v6.2h-1.6V52.3z M67.2,58.4H70
				c1.6,0,2.8-0.7,2.8-2.3c0-1.5-1.1-2.3-2.8-2.3h-2.8V58.4z"/>
			<path fill="#3F505B" d="M87.8,52.3h1.6v5.8h7.4v-5.8h1.6v13.8h-1.6v-6.4h-7.4v6.4h-1.6V52.3z"/>
			<path fill="#3F505B" d="M112.5,52.3h1.6v13.8h-1.6V52.3z"/>
			<path fill="#3F505B" d="M128.3,52.3h1.6v12.3h6.3v1.5h-7.9V52.3L128.3,52.3z"/>
			<path fill="#3F505B" d="M153.2,52.3h1.5l5.9,13.8h-1.9l-1.4-3.4h-6.9l-1.4,3.4h-1.8L153.2,52.3z M153.9,54.4L153.9,54.4l-2.9,6.8
				h5.6L153.9,54.4z"/>
			<path fill="#3F505B" d="M172.9,52.3h5.3c2.7,0,6.8,1.8,6.8,6.9c0,5.1-4,6.9-6.8,6.9h-5.3V52.3z M174.5,64.6h3.1
				c3.2,0,5.5-1.6,5.5-5.4c0-3.8-2.4-5.4-5.5-5.4h-3.1V64.6z"/>
			<path fill="#3F505B" d="M198.2,52.3h8.7v1.5h-7v4.3h6.6v1.5h-6.6v4.9h7.4V66h-9L198.2,52.3L198.2,52.3z"/>
			<path fill="#3F505B" d="M220.5,52.3h1.6v12.3h6.3v1.5h-7.9V52.3z"/>
			<path fill="#3F505B" d="M240.9,52.3h4.1c2.5,0,4.8,0.9,4.8,3.8c0,3-2.6,3.8-4.5,3.8h-2.8v6.2h-1.6V52.3z M242.6,58.4h2.8
				c1.6,0,2.8-0.7,2.8-2.3c0-1.5-1.1-2.3-2.8-2.3h-2.8V58.4z"/>
			<path fill="#3F505B" d="M263.2,52.3h1.6v5.8h7.4v-5.8h1.6v13.8h-1.6v-6.4h-7.4v6.4h-1.6V52.3z"/>
			<path fill="#3F505B" d="M287.9,52.3h1.6v13.8h-1.6V52.3z"/>
			<path fill="#3F505B" d="M308.1,52.3h1.5l5.9,13.8h-1.9l-1.4-3.4h-6.9l-1.4,3.4h-1.8L308.1,52.3z M308.9,54.4L308.9,54.4l-2.9,6.8
				h5.6L308.9,54.4z"/>
		</g>
	</g>
</g>
</svg>
