<?xml version="1.0" encoding="utf-8"?>
<!-- Generator: Adobe Illustrator 16.0.4, SVG Export Plug-In . SVG Version: 6.00 Build 0)  -->
<!DOCTYPE svg PUBLIC "-//W3C//DTD SVG 1.1//EN" "http://www.w3.org/Graphics/SVG/1.1/DTD/svg11.dtd">
<svg version="1.1" id="Layer_1" xmlns="http://www.w3.org/2000/svg" xmlns:xlink="http://www.w3.org/1999/xlink" x="0px" y="0px"
	 width="17.5px" height="17.7px" viewBox="0 0 17.5 17.7" enable-background="new 0 0 17.5 17.7" xml:space="preserve">
<g>
	<path fill="#3F505B" d="M8.3,8.6"/>
	<path fill="#3F505B" d="M7,7.3"/>
	<path fill="#3F505B" d="M11.4,5.5"/>
	<path fill="#3F505B" d="M10.1,4.2"/>
	<path fill="#3F505B" d="M2.3,14.8"/>
	<path fill="#3F505B" d="M0.9,13.5"/>
	<path fill="#3F505B" d="M5.3,11.7"/>
	<path fill="#3F505B" d="M4,10.4"/>
	<path fill="#3F505B" d="M3.2,12.8"/>
	<path fill="#3F505B" d="M2.5,12"/>
	<path fill="#3F505B" d="M6.3,9.7"/>
	<path fill="#3F505B" d="M5.5,8.9"/>
	<path fill="#3F505B" d="M9.3,6.6"/>
	<path fill="#3F505B" d="M8.5,5.8"/>
	<g>
		<path fill="#3F505B" d="M12.4,3.5"/>
		<path fill="#3F505B" d="M11.6,2.7"/>
		<g>
			<g>
				
					<rect x="8.4" y="6" transform="matrix(-0.7135 -0.7007 0.7007 -0.7135 11.0022 16.8438)" fill="#3F505B" width="1.1" height="0.4"/>
				
					<rect x="6.8" y="7.8" transform="matrix(-0.7138 -0.7004 0.7004 -0.7138 7.5797 19.0702)" fill="#3F505B" width="1.9" height="0.4"/>
				
					<rect x="3.7" y="10.9" transform="matrix(-0.7131 -0.701 0.701 -0.7131 0.171 22.2487)" fill="#3F505B" width="1.9" height="0.4"/>
				
					<rect x="0.7" y="14" transform="matrix(-0.7135 -0.7006 0.7006 -0.7135 -7.2211 25.4322)" fill="#3F505B" width="1.9" height="0.4"/>
				
					<rect x="5.3" y="9.1" transform="matrix(-0.7135 -0.7007 0.7007 -0.7135 3.6028 20.026)" fill="#3F505B" width="1.1" height="0.4"/>
				
					<rect x="9.8" y="4.7" transform="matrix(-0.7133 -0.7009 0.7009 -0.7133 14.9705 15.8901)" fill="#3F505B" width="1.9" height="0.4"/>
				
					<rect x="12.9" y="1.6" transform="matrix(-0.7139 -0.7002 0.7002 -0.7139 22.379 12.7017)" fill="#3F505B" width="1.9" height="0.4"/>
				
					<rect x="11.4" y="2.9" transform="matrix(-0.7137 -0.7005 0.7005 -0.7137 18.4024 13.6608)" fill="#3F505B" width="1.1" height="0.4"/>
				<g>
					
						<rect x="2.3" y="12.2" transform="matrix(-0.7135 -0.7007 0.7007 -0.7135 -3.7953 23.2068)" fill="#3F505B" width="1.1" height="0.4"/>
					
						<rect x="8.4" y="6" transform="matrix(-0.7135 -0.7007 0.7007 -0.7135 11.0022 16.8438)" fill="#3F505B" width="1.1" height="0.4"/>
					
						<rect x="6.8" y="7.8" transform="matrix(-0.7138 -0.7004 0.7004 -0.7138 7.5797 19.0702)" fill="#3F505B" width="1.9" height="0.4"/>
					
						<rect x="5.3" y="9.1" transform="matrix(-0.7135 -0.7007 0.7007 -0.7135 3.6028 20.026)" fill="#3F505B" width="1.1" height="0.4"/>
					
						<rect x="3.7" y="10.9" transform="matrix(-0.7131 -0.701 0.701 -0.7131 0.171 22.2487)" fill="#3F505B" width="1.9" height="0.4"/>
					
						<rect x="0.7" y="14" transform="matrix(-0.7135 -0.7006 0.7006 -0.7135 -7.2211 25.4322)" fill="#3F505B" width="1.9" height="0.4"/>
					
						<rect x="9.8" y="4.7" transform="matrix(-0.7133 -0.7009 0.7009 -0.7133 14.9705 15.8901)" fill="#3F505B" width="1.9" height="0.4"/>
					
						<rect x="11.4" y="2.9" transform="matrix(-0.7137 -0.7005 0.7005 -0.7137 18.4024 13.6608)" fill="#3F505B" width="1.1" height="0.4"/>
				</g>
			</g>
			<g>
				
					<rect x="2.3" y="12.2" transform="matrix(-0.7135 -0.7007 0.7007 -0.7135 -3.7953 23.2068)" fill="#3F505B" width="1.1" height="0.4"/>
				
					<rect x="0.7" y="14" transform="matrix(-0.7135 -0.7006 0.7006 -0.7135 -7.2211 25.4322)" fill="#3F505B" width="1.9" height="0.4"/>
				
					<rect x="6.8" y="7.8" transform="matrix(-0.7138 -0.7004 0.7004 -0.7138 7.5797 19.0702)" fill="#3F505B" width="1.9" height="0.4"/>
				
					<rect x="12.9" y="1.6" transform="matrix(-0.7139 -0.7002 0.7002 -0.7139 22.379 12.7017)" fill="#3F505B" width="1.9" height="0.4"/>
				<path fill="#3F505B" d="M17.4,2.8l-2.7-2.7c-0.2-0.2-0.4-0.2-0.6,0L0.1,14.3c-0.2,0.2-0.2,0.4,0,0.6l2.7,2.7
					c0.2,0.2,0.4,0.2,0.6,0L17.4,3.4C17.6,3.2,17.6,3,17.4,2.8z M2.1,15l-1.3-1.3l0.3-0.3l1.3,1.3L2.1,15z M3.1,12.9l-0.8-0.8
					l0.3-0.3l0.8,0.8L3.1,12.9z M5.2,11.9l-1.3-1.3l0.3-0.3l1.3,1.3L5.2,11.9z M6.2,9.8L5.4,9l0.3-0.3l0.8,0.8L6.2,9.8z M8.2,8.8
					L6.9,7.5l0.3-0.3l1.3,1.3L8.2,8.8z M9.2,6.7L8.4,5.9l0.3-0.3l0.8,0.8L9.2,6.7z M11.3,5.7L9.9,4.4l0.3-0.3l1.3,1.3L11.3,5.7z
					 M12.3,3.6l-0.8-0.8l0.3-0.3l0.8,0.8L12.3,3.6z M14.3,2.6L13,1.3L13.3,1l1.3,1.3L14.3,2.6z"/>
			</g>
		</g>
	</g>
</g>
</svg>
