<?xml version="1.0" encoding="utf-8"?>
<!-- Generator: Adobe Illustrator 16.0.4, SVG Export Plug-In . SVG Version: 6.00 Build 0)  -->
<!DOCTYPE svg PUBLIC "-//W3C//DTD SVG 1.1//EN" "http://www.w3.org/Graphics/SVG/1.1/DTD/svg11.dtd">
<svg version="1.1" id="Layer_1" xmlns="http://www.w3.org/2000/svg" xmlns:xlink="http://www.w3.org/1999/xlink" x="0px" y="0px"
	 width="10.2px" height="17.7px" viewBox="0 0 10.2 17.7" enable-background="new 0 0 10.2 17.7" xml:space="preserve">
<g>
	<g>
		<path fill="#3F505B" d="M5.2,1.9c1.9,0,4.6,1,4.6,2.4c0,0.5-0.3,0.9-1,0.9c-1,0-1.4-1.4-3.5-1.4C4,3.8,2.8,4.4,2.8,5.5
			c0,2.4,7.3,2.1,7.3,6.1c0,2.9-2.5,4.2-5,4.2c-2.9,0-5.2-1.4-5.2-2.6c0-0.6,0.4-1,0.9-1c1,0,1.8,1.7,4.3,1.7c1.7,0,2.7-0.9,2.7-1.9
			c0-2.7-7.3-2.5-7.3-6.4C0.6,3.2,2.9,1.9,5.2,1.9z"/>
	</g>
	<path fill="#3F505B" d="M6.2,3.4c0,0.1-0.4,0.2-0.9,0.2l0,0c-0.5,0-0.9-0.1-0.9-0.2V0.2C4.5,0.1,4.9,0,5.4,0l0,0
		c0.5,0,0.9,0.1,0.9,0.2V3.4z"/>
	<path fill="#3F505B" d="M6.2,17.5c0,0.1-0.4,0.2-0.9,0.2l0,0c-0.5,0-0.9-0.1-0.9-0.2v-3.2c0-0.1,0.4-0.2,0.9-0.2l0,0
		c0.5,0,0.9,0.1,0.9,0.2V17.5z"/>
</g>
</svg>
