<?xml version="1.0" encoding="utf-8"?>
<!-- Generator: Adobe Illustrator 16.0.4, SVG Export Plug-In . SVG Version: 6.00 Build 0)  -->
<!DOCTYPE svg PUBLIC "-//W3C//DTD SVG 1.1//EN" "http://www.w3.org/Graphics/SVG/1.1/DTD/svg11.dtd">
<svg version="1.1" id="Layer_1" xmlns="http://www.w3.org/2000/svg" xmlns:xlink="http://www.w3.org/1999/xlink" x="0px" y="0px"
	 width="14.8px" height="9.2px" viewBox="0 0 14.8 9.2" enable-background="new 0 0 14.8 9.2" xml:space="preserve">
<g>
	<path fill="#3F505B" d="M1.3,2.6C0.5,2.6,0,2.2,0,1.3C0,0.4,0.5,0,1.3,0h12.3c0.7,0,1.3,0.4,1.3,1.3c0,0.9-0.5,1.3-1.3,1.3H1.3z
		 M1.3,9.2C0.5,9.2,0,8.8,0,7.9C0,7,0.5,6.6,1.3,6.6h12.3c0.7,0,1.3,0.4,1.3,1.3c0,0.9-0.5,1.3-1.3,1.3H1.3z"/>
</g>
</svg>
