<?xml version="1.0" encoding="utf-8"?>
<!-- Generator: Adobe Illustrator 16.0.4, SVG Export Plug-In . SVG Version: 6.00 Build 0)  -->
<!DOCTYPE svg PUBLIC "-//W3C//DTD SVG 1.1//EN" "http://www.w3.org/Graphics/SVG/1.1/DTD/svg11.dtd">
<svg version="1.1" id="Layer_1" xmlns="http://www.w3.org/2000/svg" xmlns:xlink="http://www.w3.org/1999/xlink" x="0px" y="0px"
	 width="17.7px" height="13.6px" viewBox="0 0 17.7 13.6" enable-background="new 0 0 17.7 13.6" xml:space="preserve">
<g>
	<path fill="#3F505B" d="M6.6,11.4c0,0-3.1,1.2-3.3,1.9l0.4,0.2c0,0,2.8-2,3.1-2C7.1,11.6,6.6,11.4,6.6,11.4z"/>
	<g>
		<path fill="#3F505B" d="M17.7,6.9c0,0-1.1,2-1.9,2.9c-0.8,0.9-6.1,5.7-8.9,2.8c-2.8-2.9,0.3-7.7,8.7-6.1
			C15.7,6.5,17.4,6.8,17.7,6.9z"/>
		<path fill="#3F505B" d="M0.4,0c0,0,1.7,0.9,2.5,1.5c0.7,0.6,4.8,4.8,2.5,7.2C3,11-0.9,8.6,0.2,1.7C0.2,1.7,0.4,0.3,0.4,0z"/>
		<path fill="#3F505B" d="M3.8,8.1c0.1,0.8,0.8,4.2,0.1,5.2H3.3c0,0,0.4-4.9,0.1-5C3.2,8.1,3.8,8.1,3.8,8.1z"/>
	</g>
</g>
</svg>
