<?xml version="1.0" encoding="utf-8"?>
<!-- Generator: Adobe Illustrator 16.0.4, SVG Export Plug-In . SVG Version: 6.00 Build 0)  -->
<!DOCTYPE svg PUBLIC "-//W3C//DTD SVG 1.1//EN" "http://www.w3.org/Graphics/SVG/1.1/DTD/svg11.dtd">
<svg version="1.1" id="Layer_1" xmlns="http://www.w3.org/2000/svg" xmlns:xlink="http://www.w3.org/1999/xlink" x="0px" y="0px"
	 width="60px" height="60px" viewBox="0 0 60 60" style="enable-background:new 0 0 60 60;" xml:space="preserve">
<style type="text/css">
<![CDATA[
	.st0{fill:#E9D8A6;}
	.st1{fill:#EFBB8E;}
	.st2{fill:#BFD5D5;}
	.st3{fill:#C1CB8F;}
	.st4{fill:#96ACBF;}
	.st5{fill:#FFFFFF;}
]]>
</style>
<g>
	<g>
		<path class="st3" d="M36.9,14.4l6.4-11.3c-1.8-0.9-3.7-1.6-5.7-2.1l-2.4,12.8C35.7,13.9,36.3,14.1,36.9,14.4z"/>
		<path class="st3" d="M13,30c0-0.5,0-1,0.1-1.4L0.3,25.7C0.1,27.1,0,28.5,0,30c0,0.6,0.1,1.1,0.1,1.7L13,30.3
			C13,30.2,13,30.1,13,30z"/>
		<path class="st3" d="M13.2,32.5l-13,0.1c0.2,2,0.6,4,1.1,5.9l12.3-4.3C13.4,33.6,13.3,33.1,13.2,32.5z"/>
		<path class="st3" d="M16.1,39.8l-11.6,6c1,1.7,2.2,3.2,3.6,4.7l9-9.4C16.7,40.6,16.4,40.2,16.1,39.8z"/>
		<path class="st3" d="M13.9,24.6L2.1,18.9c-0.7,1.9-1.3,3.8-1.6,5.8l12.9,1.7C13.5,25.8,13.7,25.2,13.9,24.6z"/>
		<path class="st3" d="M18.7,42.7l-9.9,8.5c1.4,1.4,2.9,2.6,4.5,3.7l6.6-11.2C19.5,43.4,19.1,43,18.7,42.7z"/>
		<path class="st3" d="M24.9,13.7L22.5,1c-2,0.5-3.9,1.2-5.7,2.1l6.4,11.3C23.8,14.1,24.3,13.9,24.9,13.7z"/>
		<path class="st3" d="M21.3,15.4L16,3.5c-1.8,1-3.5,2.1-5.1,3.4l8.8,9.6C20.2,16.1,20.7,15.7,21.3,15.4z"/>
		<path class="st3" d="M18.1,17.9L10.2,7.5C8.7,8.9,7.3,10.4,6.1,12l10.8,7.3C17.2,18.8,17.6,18.3,18.1,17.9z"/>
		<path class="st3" d="M15.6,21L5.5,12.7c-1.2,1.6-2.2,3.4-3,5.3l12.2,4.6C14.9,22.1,15.2,21.5,15.6,21z"/>
		<path class="st3" d="M40.1,43.7l6.6,11.2c1.6-1.1,3.2-2.4,4.5-3.7l-9.9-8.5C41,43,40.5,43.4,40.1,43.7z"/>
		<path class="st3" d="M42.9,41.1l9,9.4c1.3-1.4,2.5-3,3.6-4.7l-11.6-6C43.6,40.2,43.3,40.6,42.9,41.1z"/>
		<path class="st3" d="M36.7,45.6L40.6,58c1.8-0.7,3.6-1.6,5.2-2.6l-7.7-10.5C37.7,45.2,37.2,45.4,36.7,45.6z"/>
		<path class="st3" d="M21.8,44.9l-7.6,10.5c1.7,1,3.4,1.9,5.2,2.6l3.9-12.4C22.8,45.4,22.3,45.2,21.8,44.9z"/>
		<path class="st3" d="M45.8,36.3c-0.2,0.5-0.4,1-0.7,1.5l10.9,7c1-1.7,1.8-3.5,2.4-5.4L45.8,36.3z"/>
		<path class="st3" d="M25.4,46.4l-5,12c1.8,0.6,3.7,1.1,5.7,1.3l0.9-13C26.4,46.6,25.9,46.5,25.4,46.4z"/>
		<path class="st3" d="M33.1,46.7l0.9,13c2-0.3,3.9-0.7,5.7-1.3l-5-12C34.1,46.5,33.6,46.6,33.1,46.7z"/>
		<path class="st3" d="M14.2,36.3L1.6,39.5C2.2,41.4,3,43.2,4,44.9l10.9-7C14.7,37.4,14.4,36.8,14.2,36.3z"/>
		<path class="st3" d="M33,13.2l3.6-12.5c-2-0.4-4-0.7-6.1-0.7l0.6,13C31.7,13,32.4,13.1,33,13.2z"/>
		<path class="st3" d="M45.4,22.6L57.5,18c-0.8-1.9-1.8-3.6-3-5.3L44.5,21C44.8,21.5,45.1,22.1,45.4,22.6z"/>
		<path class="st3" d="M40.3,16.4l8.8-9.6c-1.6-1.3-3.3-2.4-5.1-3.4l-5.3,11.9C39.3,15.7,39.8,16.1,40.3,16.4z"/>
		<path class="st3" d="M43.2,19.2L54,12c-1.2-1.6-2.6-3.1-4.1-4.5L42,17.9C42.4,18.3,42.8,18.8,43.2,19.2z"/>
		<path class="st3" d="M46.5,34.2l12.3,4.3c0.6-1.9,0.9-3.8,1.1-5.9l-13-0.1C46.8,33.1,46.7,33.6,46.5,34.2z"/>
		<path class="st3" d="M46.7,26.4l12.9-1.7c-0.4-2-0.9-3.9-1.6-5.8l-11.7,5.7C46.4,25.2,46.5,25.8,46.7,26.4z"/>
		<path class="st3" d="M47.1,30c0,0.1,0,0.2,0,0.3l12.9,1.4c0-0.6,0.1-1.1,0.1-1.7c0-1.5-0.1-2.9-0.3-4.3L47,28.5
			C47,29,47.1,29.5,47.1,30z"/>
		<path class="st3" d="M28.9,13l0.6-13c-2.1,0-4.1,0.3-6.1,0.7l3.6,12.5C27.7,13.1,28.3,13,28.9,13z"/>
		<path class="st3" d="M30,47c-0.3,0-0.5,0-0.8,0l-2.1,12.9c1,0.1,1.9,0.1,2.9,0.1s2-0.1,2.9-0.1L30.8,47C30.6,47,30.3,47,30,47z"/>
	</g>
	<g>
		<path class="st5" d="M29.2,40.7c0,0-6.6,2.6-6.8,4l0.9,0.5c0,0,5.9-4.2,6.4-4.1C30.2,41.2,29.2,40.7,29.2,40.7z"/>
		<g>
			<path class="st5" d="M52.5,31.2c0,0-2.3,4.2-4,6.2c-1.6,1.8-12.8,12-18.6,5.8C24,37,30.6,27.1,48.2,30.4
				C48.2,30.4,51.7,31.1,52.5,31.2z"/>
			<path class="st5" d="M16.2,16.8c0,0,3.5,1.8,5.2,3.1C22.9,21.1,31.5,30,26.6,35c-4.9,5-13.2-0.2-10.9-14.7
				C15.7,20.3,16.1,17.4,16.2,16.8z"/>
			<path class="st5" d="M23.2,33.8c0.3,1.6,1.6,8.8,0.1,10.9h-1.1c0,0,0.8-10.2,0.2-10.6C21.9,33.9,23.2,33.8,23.2,33.8z"/>
		</g>
	</g>
</g>
</svg>
