<?xml version="1.0" encoding="utf-8"?>
<!-- Generator: Adobe Illustrator 16.0.4, SVG Export Plug-In . SVG Version: 6.00 Build 0)  -->
<!DOCTYPE svg PUBLIC "-//W3C//DTD SVG 1.1//EN" "http://www.w3.org/Graphics/SVG/1.1/DTD/svg11.dtd">
<svg version="1.1" id="Layer_1" xmlns="http://www.w3.org/2000/svg" xmlns:xlink="http://www.w3.org/1999/xlink" x="0px" y="0px"
	 width="59.9px" height="60px" viewBox="0 0 59.9 60" style="enable-background:new 0 0 59.9 60;" xml:space="preserve">
<style type="text/css">
<![CDATA[
	.st0{fill:#E9D8A6;}
	.st1{fill:#EFBB8E;}
	.st2{fill:#BFD5D5;}
	.st3{fill:#C1CB8F;}
	.st4{fill:#96ACBF;}
	.st5{fill:#FFFFFF;}
]]>
</style>
<g>
	<path class="st1" d="M36.8,14.4l6.4-11.3c-1.8-0.9-3.7-1.6-5.7-2.1L35,13.7C35.6,13.9,36.2,14.1,36.8,14.4z"/>
	<path class="st1" d="M0,31.7l12.9-1.4c0-0.1,0-0.2,0-0.3c0-0.5,0-1,0.1-1.4L0.3,25.7"/>
	<path class="st1" d="M1.2,38.5l12.3-4.3c-0.1-0.6-0.3-1.1-0.3-1.7L0,32.7"/>
	<path class="st1" d="M16,39.8l-11.6,6c1,1.7,2.2,3.2,3.6,4.7l9-9.3C16.6,40.6,16.3,40.2,16,39.8z"/>
	<path class="st1" d="M0.4,24.7l12.9,1.7c0.1-0.6,0.3-1.2,0.5-1.7L2.1,18.9"/>
	<path class="st1" d="M18.6,42.7l-9.9,8.5c1.4,1.4,2.9,2.6,4.5,3.7l6.6-11.2C19.4,43.4,19,43,18.6,42.7z"/>
	<path class="st1" d="M24.9,13.7L22.5,1c-2,0.5-3.9,1.2-5.7,2.1l6.4,11.3C23.7,14.1,24.3,13.9,24.9,13.7z"/>
	<path class="st1" d="M21.2,15.4L15.9,3.5c-1.8,1-3.5,2.1-5.1,3.4l8.8,9.6C20.1,16.1,20.6,15.7,21.2,15.4z"/>
	<path class="st1" d="M18,17.9L10.1,7.5C8.6,8.9,7.2,10.4,6,12l10.8,7.3C17.1,18.8,17.5,18.3,18,17.9z"/>
	<path class="st1" d="M2.4,18l12.2,4.6c0.3-0.5,0.6-1.1,0.9-1.6L5.4,12.7C4.2,14.4,3.2,16.2,2.4,18"/>
	<path class="st1" d="M51.2,51.2l-9.9-8.5c-0.4,0.4-0.8,0.7-1.3,1l6.6,11.2C48.3,53.8,49.8,52.6,51.2,51.2"/>
	<path class="st1" d="M55.4,45.7l-11.6-6c-0.3,0.5-0.7,0.9-1,1.3l9,9.3"/>
	<path class="st1" d="M36.7,45.6L40.5,58c1.8-0.7,3.6-1.6,5.2-2.6l-7.7-10.5C37.7,45.2,37.2,45.4,36.7,45.6z"/>
	<path class="st1" d="M21.7,44.9l-7.6,10.5c1.6,1,3.4,1.9,5.2,2.6l3.9-12.4C22.7,45.4,22.2,45.2,21.7,44.9z"/>
	<path class="st1" d="M58.4,39.5l-12.7-3.2c-0.2,0.5-0.4,1-0.7,1.5l10.9,7"/>
	<path class="st1" d="M25.3,46.4l-5,12c1.8,0.6,3.7,1.1,5.7,1.3l0.9-13C26.4,46.6,25.8,46.5,25.3,46.4z"/>
	<path class="st1" d="M33,46.7l0.9,13c2-0.3,3.9-0.7,5.7-1.3l-5-12C34,46.5,33.5,46.6,33,46.7z"/>
	<path class="st1" d="M1.5,39.5c0.6,1.9,1.4,3.7,2.4,5.4l10.9-7c-0.3-0.5-0.5-1-0.7-1.5L1.5,39.5"/>
	<path class="st1" d="M32.9,13.2l3.6-12.5c-2-0.4-4-0.7-6.1-0.7L31,13C31.7,13,32.3,13.1,32.9,13.2z"/>
	<path class="st1" d="M54.5,12.7L44.4,21c0.3,0.5,0.6,1,0.9,1.6L57.4,18"/>
	<path class="st1" d="M49.1,6.9c-1.6-1.3-3.3-2.4-5.1-3.4l-5.3,11.9c0.5,0.3,1.1,0.7,1.5,1.1L49.1,6.9"/>
	<path class="st1" d="M49.8,7.5l-7.9,10.3c0.4,0.4,0.9,0.9,1.2,1.4L53.9,12"/>
	<path class="st1" d="M59.8,32.7l-13-0.1c-0.1,0.6-0.2,1.1-0.3,1.7l12.3,4.3"/>
	<path class="st1" d="M57.8,18.9l-11.7,5.7c0.2,0.6,0.3,1.1,0.5,1.7l12.9-1.7"/>
	<path class="st1" d="M59.6,25.7l-12.7,2.9c0,0.5,0.1,1,0.1,1.4c0,0.1,0,0.2,0,0.3l12.9,1.4"/>
	<path class="st1" d="M28.8,13l0.6-13c-2.1,0-4.1,0.3-6.1,0.7L27,13.2C27.6,13.1,28.2,13,28.8,13z"/>
	<path class="st1" d="M29.9,47c-0.3,0-0.5,0-0.8,0L27,59.9c1,0.1,1.9,0.1,2.9,0.1c1,0,2-0.1,2.9-0.1L30.7,47
		C30.5,47,30.2,47,29.9,47z"/>
	<g>
		<polygon class="st5" points="43,9.1 19.7,29.2 31.2,31.7 		"/>
		<polygon class="st5" points="14.7,52.3 38,32.2 26.5,29.7 		"/>
	</g>
</g>
</svg>
