<?xml version="1.0" encoding="utf-8"?>
<!-- Generator: Adobe Illustrator 16.0.4, SVG Export Plug-In . SVG Version: 6.00 Build 0)  -->
<!DOCTYPE svg PUBLIC "-//W3C//DTD SVG 1.1//EN" "http://www.w3.org/Graphics/SVG/1.1/DTD/svg11.dtd">
<svg version="1.1" id="Layer_1" xmlns="http://www.w3.org/2000/svg" xmlns:xlink="http://www.w3.org/1999/xlink" x="0px" y="0px"
	 width="60px" height="60px" viewBox="0 0 60 60" style="enable-background:new 0 0 60 60;" xml:space="preserve">
<style type="text/css">
<![CDATA[
	.st0{fill:#E9D8A6;}
	.st1{fill:#EFBB8E;}
	.st2{fill:#BFD5D5;}
	.st3{fill:#C1CB8F;}
	.st4{fill:#96ACBF;}
	.st5{fill:#FFFFFF;}
]]>
</style>
<g>
	<g>
		<path class="st5" d="M21.1,27.2c-1,0-1.8-0.6-1.8-1.8c0-1.3,0.7-1.8,1.8-1.8h17.4c1,0,1.8,0.6,1.8,1.8c0,1.3-0.7,1.8-1.8,1.8H21.1
			z M21.1,36.5c-1,0-1.8-0.6-1.8-1.8c0-1.3,0.7-1.8,1.8-1.8h17.4c1,0,1.8,0.6,1.8,1.8c0,1.3-0.7,1.8-1.8,1.8H21.1z"/>
	</g>
	<g>
		<g>
			<path class="st4" d="M36.8,14.4l6.4-11.3c-1.8-0.9-3.7-1.6-5.7-2.1l-2.4,12.8C35.7,13.9,36.3,14.1,36.8,14.4z"/>
			<path class="st4" d="M13,30c0-0.5,0-1,0.1-1.4L0.3,25.7C0.1,27.1,0,28.5,0,30c0,0.6,0.1,1.1,0.1,1.7L13,30.3
				C13,30.2,13,30.1,13,30z"/>
			<path class="st4" d="M13.2,32.5l-13,0.1c0.2,2,0.6,4,1.1,5.9l12.3-4.3C13.4,33.6,13.3,33.1,13.2,32.5z"/>
			<path class="st4" d="M16.1,39.7l-11.6,6c1,1.7,2.2,3.2,3.6,4.7l9-9.3C16.7,40.6,16.4,40.2,16.1,39.7z"/>
			<path class="st4" d="M13.8,24.6L2.1,18.9c-0.7,1.8-1.3,3.8-1.6,5.8l12.9,1.7C13.5,25.8,13.7,25.2,13.8,24.6z"/>
			<path class="st4" d="M18.7,42.6l-9.9,8.5c1.4,1.4,2.9,2.6,4.5,3.7l6.6-11.2C19.5,43.4,19.1,43,18.7,42.6z"/>
			<path class="st4" d="M24.9,13.7L22.5,0.9c-2,0.5-3.9,1.2-5.7,2.1l6.4,11.3C23.7,14.1,24.3,13.9,24.9,13.7z"/>
			<path class="st4" d="M21.2,15.4L15.9,3.5c-1.8,1-3.5,2.1-5.1,3.4l8.8,9.6C20.2,16.1,20.7,15.7,21.2,15.4z"/>
			<path class="st4" d="M18.1,17.9L10.2,7.5C8.6,8.9,7.3,10.3,6,12l10.8,7.3C17.2,18.7,17.6,18.3,18.1,17.9z"/>
			<path class="st4" d="M15.5,21L5.5,12.7c-1.2,1.6-2.2,3.4-3,5.3l12.2,4.6C14.9,22,15.2,21.5,15.5,21z"/>
			<path class="st4" d="M40.1,43.7l6.6,11.2c1.6-1.1,3.2-2.4,4.5-3.7l-9.9-8.5C40.9,43,40.5,43.4,40.1,43.7z"/>
			<path class="st4" d="M42.9,41l9,9.3c1.3-1.4,2.5-3,3.6-4.7l-11.6-6C43.6,40.2,43.3,40.6,42.9,41z"/>
			<path class="st4" d="M36.7,45.6L40.6,58c1.8-0.7,3.6-1.6,5.2-2.6l-7.6-10.5C37.7,45.2,37.2,45.4,36.7,45.6z"/>
			<path class="st4" d="M21.8,44.9l-7.6,10.5c1.6,1,3.4,1.9,5.2,2.6l3.9-12.4C22.8,45.4,22.3,45.2,21.8,44.9z"/>
			<path class="st4" d="M45.8,36.3c-0.2,0.5-0.4,1-0.7,1.5l10.9,7c1-1.7,1.8-3.5,2.4-5.4L45.8,36.3z"/>
			<path class="st4" d="M25.4,46.3l-5,12c1.8,0.6,3.7,1.1,5.7,1.3l0.9-13C26.4,46.6,25.9,46.5,25.4,46.3z"/>
			<path class="st4" d="M33,46.7l0.9,13c2-0.3,3.9-0.7,5.7-1.3l-5-12C34.1,46.5,33.6,46.6,33,46.7z"/>
			<path class="st4" d="M14.2,36.3L1.6,39.4C2.2,41.3,3,43.1,4,44.8l10.9-7C14.6,37.3,14.4,36.8,14.2,36.3z"/>
			<path class="st4" d="M33,13.2l3.6-12.5c-2-0.4-4-0.7-6.1-0.7l0.6,13C31.7,13,32.3,13.1,33,13.2z"/>
			<path class="st4" d="M45.3,22.6L57.5,18c-0.8-1.9-1.8-3.6-3-5.3L44.5,21C44.8,21.5,45.1,22,45.3,22.6z"/>
			<path class="st4" d="M40.3,16.4l8.8-9.6c-1.6-1.3-3.3-2.4-5.1-3.4l-5.3,11.9C39.3,15.7,39.8,16.1,40.3,16.4z"/>
			<path class="st4" d="M43.2,19.2L54,12c-1.2-1.6-2.6-3.1-4.1-4.5L42,17.9C42.4,18.3,42.8,18.7,43.2,19.2z"/>
			<path class="st4" d="M46.5,34.2l12.3,4.3c0.6-1.9,0.9-3.8,1.1-5.8l-13-0.1C46.7,33.1,46.6,33.6,46.5,34.2z"/>
			<path class="st4" d="M46.6,26.4l12.9-1.7c-0.4-2-0.9-3.9-1.6-5.8l-11.7,5.7C46.3,25.2,46.5,25.8,46.6,26.4z"/>
			<path class="st4" d="M47,30c0,0.1,0,0.2,0,0.3l12.9,1.4c0-0.6,0.1-1.1,0.1-1.7c0-1.5-0.1-2.9-0.3-4.3L47,28.5
				C47,29,47,29.5,47,30z"/>
			<path class="st4" d="M28.9,13l0.6-13c-2.1,0-4.1,0.3-6.1,0.7L27,13.2C27.7,13.1,28.3,13,28.9,13z"/>
			<path class="st4" d="M30,47c-0.3,0-0.5,0-0.8,0l-2.1,12.9C28,59.9,29,60,30,60c1,0,2-0.1,2.9-0.1L30.8,47C30.5,47,30.3,47,30,47z
				"/>
		</g>
	</g>
</g>
</svg>
