<?xml version="1.0" encoding="utf-8"?>
<!-- Generator: Adobe Illustrator 16.0.4, SVG Export Plug-In . SVG Version: 6.00 Build 0)  -->
<!DOCTYPE svg PUBLIC "-//W3C//DTD SVG 1.1//EN" "http://www.w3.org/Graphics/SVG/1.1/DTD/svg11.dtd">
<svg version="1.1" id="Layer_1" xmlns="http://www.w3.org/2000/svg" xmlns:xlink="http://www.w3.org/1999/xlink" x="0px" y="0px"
	 width="60px" height="60px" viewBox="0 0 60 60" style="enable-background:new 0 0 60 60;" xml:space="preserve">
<style type="text/css">
<![CDATA[
	.st0{fill:#E9D8A6;}
	.st1{fill:#EFBB8E;}
	.st2{fill:#BFD5D5;}
	.st3{fill:#C1CB8F;}
	.st4{fill:#96ACBF;}
	.st5{fill:#FFFFFF;}
]]>
</style>
<g>
	<g>
		<g>
			<path class="st0" d="M36.9,14.4l6.4-11.3c-1.8-0.9-3.7-1.6-5.7-2.1l-2.4,12.8C35.7,13.9,36.3,14.1,36.9,14.4z"/>
			<path class="st0" d="M13,30c0-0.5,0-1,0.1-1.4L0.3,25.7C0.1,27.1,0,28.5,0,30c0,0.6,0.1,1.1,0.1,1.7L13,30.3
				C13,30.2,13,30.1,13,30z"/>
			<path class="st0" d="M13.2,32.5l-13,0.1c0.2,2,0.6,4,1.1,5.9l12.3-4.3C13.4,33.6,13.3,33.1,13.2,32.5z"/>
			<path class="st0" d="M16.1,39.8l-11.6,6c1,1.7,2.2,3.2,3.6,4.7l9-9.4C16.7,40.6,16.4,40.2,16.1,39.8z"/>
			<path class="st0" d="M13.9,24.6L2.1,18.9c-0.7,1.9-1.3,3.8-1.6,5.8l12.9,1.7C13.5,25.8,13.7,25.2,13.9,24.6z"/>
			<path class="st0" d="M18.7,42.7l-9.9,8.5c1.4,1.4,2.9,2.6,4.5,3.7l6.6-11.2C19.5,43.4,19.1,43,18.7,42.7z"/>
			<path class="st0" d="M24.9,13.7L22.5,0.9c-2,0.5-3.9,1.2-5.7,2.1l6.4,11.3C23.8,14.1,24.3,13.9,24.9,13.7z"/>
			<path class="st0" d="M21.3,15.4L16,3.5c-1.8,1-3.5,2.1-5.1,3.4l8.8,9.6C20.2,16.1,20.7,15.7,21.3,15.4z"/>
			<path class="st0" d="M18.1,17.9L10.2,7.5C8.7,8.9,7.3,10.4,6.1,12l10.8,7.3C17.2,18.8,17.6,18.3,18.1,17.9z"/>
			<path class="st0" d="M15.6,21L5.5,12.7c-1.2,1.6-2.2,3.4-3,5.3l12.2,4.6C14.9,22.1,15.2,21.5,15.6,21z"/>
			<path class="st0" d="M40.1,43.7l6.6,11.2c1.6-1.1,3.2-2.4,4.5-3.7l-9.9-8.5C41,43,40.5,43.4,40.1,43.7z"/>
			<path class="st0" d="M42.9,41.1l9,9.4c1.3-1.4,2.5-3,3.6-4.7l-11.6-6C43.6,40.2,43.3,40.6,42.9,41.1z"/>
			<path class="st0" d="M36.7,45.6L40.6,58c1.8-0.7,3.6-1.6,5.2-2.6l-7.7-10.5C37.7,45.2,37.2,45.4,36.7,45.6z"/>
			<path class="st0" d="M21.8,44.9l-7.6,10.5c1.6,1,3.4,1.9,5.2,2.6l3.9-12.4C22.8,45.4,22.3,45.2,21.8,44.9z"/>
			<path class="st0" d="M45.8,36.3c-0.2,0.5-0.4,1-0.7,1.5l10.9,7c1-1.7,1.8-3.5,2.4-5.4L45.8,36.3z"/>
			<path class="st0" d="M25.4,46.4l-5,12c1.8,0.6,3.7,1.1,5.7,1.3l0.9-13C26.4,46.6,25.9,46.5,25.4,46.4z"/>
			<path class="st0" d="M33.1,46.7l0.9,13c2-0.3,3.9-0.7,5.7-1.3l-5-12C34.1,46.5,33.6,46.6,33.1,46.7z"/>
			<path class="st0" d="M14.2,36.3L1.6,39.5C2.2,41.4,3,43.2,4,44.9l10.9-7C14.7,37.4,14.4,36.8,14.2,36.3z"/>
			<path class="st0" d="M33,13.2l3.6-12.5c-2-0.4-4-0.7-6.1-0.7l0.6,13C31.7,13,32.4,13.1,33,13.2z"/>
			<path class="st0" d="M45.4,22.6L57.5,18c-0.8-1.9-1.8-3.6-3-5.3L44.5,21C44.8,21.5,45.1,22.1,45.4,22.6z"/>
			<path class="st0" d="M40.3,16.4l8.8-9.6c-1.6-1.3-3.3-2.4-5.1-3.4l-5.3,11.9C39.3,15.7,39.8,16.1,40.3,16.4z"/>
			<path class="st0" d="M43.2,19.2L54,12c-1.2-1.6-2.6-3.1-4.1-4.5L42,17.9C42.4,18.3,42.8,18.8,43.2,19.2z"/>
			<path class="st0" d="M46.5,34.2l12.3,4.3c0.6-1.9,0.9-3.8,1.1-5.9l-13-0.1C46.8,33.1,46.7,33.6,46.5,34.2z"/>
			<path class="st0" d="M46.7,26.4l12.9-1.7c-0.4-2-0.9-3.9-1.6-5.8l-11.7,5.7C46.4,25.2,46.5,25.8,46.7,26.4z"/>
			<path class="st0" d="M47.1,30c0,0.1,0,0.2,0,0.3l12.9,1.4c0-0.6,0.1-1.1,0.1-1.7c0-1.5-0.1-2.9-0.3-4.3L47,28.5
				C47,29,47.1,29.5,47.1,30z"/>
			<path class="st0" d="M28.9,13l0.6-13c-2.1,0-4.1,0.3-6.1,0.7l3.6,12.5C27.7,13.1,28.3,13,28.9,13z"/>
			<path class="st0" d="M30,47c-0.3,0-0.5,0-0.8,0l-2.1,12.9c1,0.1,1.9,0.1,2.9,0.1c1,0,2-0.1,2.9-0.1L30.8,47
				C30.6,47,30.3,47,30,47z"/>
		</g>
	</g>
	<g>
		<path class="st5" d="M29.1,30.2"/>
		<path class="st5" d="M26,27.1"/>
		<path class="st5" d="M36.3,22.9"/>
		<path class="st5" d="M33.2,19.8"/>
		<path class="st5" d="M14.7,44.8"/>
		<path class="st5" d="M11.6,41.7"/>
		<path class="st5" d="M21.9,37.5"/>
		<path class="st5" d="M18.8,34.4"/>
		<path class="st5" d="M17.1,39.9"/>
		<path class="st5" d="M15.2,38.1"/>
		<path class="st5" d="M24.3,32.6"/>
		<path class="st5" d="M22.4,30.8"/>
		<path class="st5" d="M31.5,25.3"/>
		<path class="st5" d="M29.6,23.5"/>
		<g>
			<path class="st5" d="M38.6,18"/>
			<path class="st5" d="M36.8,16.1"/>
			<g>
				<g>
					
						<rect x="29.2" y="23.9" transform="matrix(-0.7129 -0.7013 0.7013 -0.7129 35.1949 63.1518)" class="st5" width="2.6" height="0.9"/>
					
						<rect x="25.4" y="28.2" transform="matrix(-0.7136 -0.7006 0.7006 -0.7136 27.1533 68.3949)" class="st5" width="4.4" height="0.9"/>
					
						<rect x="18.2" y="35.5" transform="matrix(-0.7133 -0.7008 0.7008 -0.7133 9.7002 75.8916)" class="st5" width="4.4" height="0.9"/>
					
						<rect x="11" y="42.8" transform="matrix(-0.7134 -0.7007 0.7007 -0.7134 -7.7345 83.3926)" class="st5" width="4.4" height="0.9"/>
					
						<rect x="22" y="31.2" transform="matrix(-0.7134 -0.7007 0.7007 -0.7134 17.7837 70.6478)" class="st5" width="2.6" height="0.9"/>
					
						<rect x="32.6" y="20.9" transform="matrix(-0.7136 -0.7006 0.7006 -0.7136 44.5958 60.8946)" class="st5" width="4.4" height="0.9"/>
					
						<rect x="39.7" y="13.6" transform="matrix(-0.7134 -0.7007 0.7007 -0.7134 62.031 53.3959)" class="st5" width="4.4" height="0.9"/>
					
						<rect x="36.4" y="16.6" transform="matrix(-0.7136 -0.7005 0.7005 -0.7136 52.6747 55.6451)" class="st5" width="2.6" height="0.9"/>
					<g>
						
							<rect x="14.8" y="38.6" transform="matrix(-0.7136 -0.7005 0.7005 -0.7136 0.353 78.1511)" class="st5" width="2.6" height="0.9"/>
						
							<rect x="29.2" y="23.9" transform="matrix(-0.7129 -0.7013 0.7013 -0.7129 35.1949 63.1518)" class="st5" width="2.6" height="0.9"/>
						
							<rect x="25.4" y="28.2" transform="matrix(-0.7136 -0.7006 0.7006 -0.7136 27.1533 68.3949)" class="st5" width="4.4" height="0.9"/>
						
							<rect x="22" y="31.2" transform="matrix(-0.7134 -0.7007 0.7007 -0.7134 17.7837 70.6478)" class="st5" width="2.6" height="0.9"/>
						
							<rect x="18.2" y="35.5" transform="matrix(-0.7133 -0.7008 0.7008 -0.7133 9.7002 75.8916)" class="st5" width="4.4" height="0.9"/>
						
							<rect x="11" y="42.8" transform="matrix(-0.7134 -0.7007 0.7007 -0.7134 -7.7345 83.3926)" class="st5" width="4.4" height="0.9"/>
						
							<rect x="32.6" y="20.9" transform="matrix(-0.7136 -0.7006 0.7006 -0.7136 44.5958 60.8946)" class="st5" width="4.4" height="0.9"/>
						
							<rect x="36.4" y="16.6" transform="matrix(-0.7136 -0.7005 0.7005 -0.7136 52.6747 55.6451)" class="st5" width="2.6" height="0.9"/>
					</g>
				</g>
				<g>
					
						<rect x="14.8" y="38.6" transform="matrix(-0.7136 -0.7005 0.7005 -0.7136 0.353 78.1511)" class="st5" width="2.6" height="0.9"/>
					
						<rect x="11" y="42.8" transform="matrix(-0.7134 -0.7007 0.7007 -0.7134 -7.7345 83.3926)" class="st5" width="4.4" height="0.9"/>
					
						<rect x="25.4" y="28.2" transform="matrix(-0.7136 -0.7006 0.7006 -0.7136 27.1533 68.3949)" class="st5" width="4.4" height="0.9"/>
					
						<rect x="39.7" y="13.6" transform="matrix(-0.7134 -0.7007 0.7007 -0.7134 62.031 53.3959)" class="st5" width="4.4" height="0.9"/>
					<path class="st5" d="M50.4,16.4L44,10.1c-0.4-0.4-1-0.4-1.4,0L9.7,43.6c-0.4,0.4-0.4,1,0,1.4l6.5,6.3c0.4,0.4,1,0.4,1.4,0
						l32.9-33.5C50.8,17.4,50.8,16.8,50.4,16.4z M14.4,45.1l-3.1-3.1l0.6-0.6l3.1,3.1L14.4,45.1z M16.8,40.2l-1.9-1.8l0.6-0.6
						l1.9,1.8L16.8,40.2z M21.6,37.8l-3.1-3.1l0.6-0.6l3.1,3.1L21.6,37.8z M24,32.9l-1.9-1.8l0.6-0.6l1.9,1.8L24,32.9z M28.8,30.5
						l-3.1-3.1l0.6-0.6l3.1,3.1L28.8,30.5z M31.1,25.6l-1.9-1.8l0.6-0.6l1.9,1.8L31.1,25.6z M36,23.2l-3.1-3.1l0.6-0.6l3.1,3.1
						L36,23.2z M38.3,18.3l-1.9-1.8l0.6-0.6l1.9,1.8L38.3,18.3z M43.2,15.9l-3.1-3.1l0.6-0.6l3.1,3.1L43.2,15.9z"/>
				</g>
			</g>
		</g>
	</g>
</g>
</svg>
